<svg width="300" height="272" viewBox="0 0 300 272" fill="none" xmlns="http://www.w3.org/2000/svg">
<foreignObject x="-2.86102e-05" y="-0.000268936" width="299.039" height="272.011"><div xmlns="http://www.w3.org/1999/xhtml" style="backdrop-filter:blur(1.94px);clip-path:url(#bgblur_0_861_1222_clip_path);height:100%;width:100%"></div></foreignObject><g filter="url(#filter0_ddddd_861_1222)" data-figma-bg-blur-radius="3.87125">
<path d="M190.637 210.939C247.78 210.939 294.072 165.287 294.034 108.973C293.996 52.6586 247.642 7.00684 190.499 7.00684C133.356 7.00684 87.0636 52.6586 87.1019 108.973C87.1401 165.287 133.494 210.939 190.637 210.939Z" fill="#F5FFFE"/>
<path d="M190.498 6.50684C247.91 6.50684 294.496 52.3754 294.534 108.973C294.573 165.57 248.049 211.439 190.637 211.439C133.225 211.439 86.6403 165.57 86.6019 108.973C86.5636 52.3755 133.086 6.50699 190.498 6.50684Z" stroke="url(#paint0_linear_861_1222)"/>
</g>
<defs>
<filter id="filter0_ddddd_861_1222" x="-2.86102e-05" y="-0.000268936" width="299.039" height="272.011" filterUnits="userSpaceOnUse" color-interpolation-filters="sRGB">
<feFlood flood-opacity="0" result="BackgroundImageFix"/>
<feColorMatrix in="SourceAlpha" type="matrix" values="0 0 0 0 0 0 0 0 0 0 0 0 0 0 0 0 0 0 127 0" result="hardAlpha"/>
<feOffset dx="-2.66982" dy="1.33491"/>
<feGaussianBlur stdDeviation="3.33728"/>
<feColorMatrix type="matrix" values="0 0 0 0 0 0 0 0 0 0 0 0 0 0 0 0 0 0 0.29 0"/>
<feBlend mode="normal" in2="BackgroundImageFix" result="effect1_dropShadow_861_1222"/>
<feColorMatrix in="SourceAlpha" type="matrix" values="0 0 0 0 0 0 0 0 0 0 0 0 0 0 0 0 0 0 127 0" result="hardAlpha"/>
<feOffset dx="-10.6793" dy="6.0071"/>
<feGaussianBlur stdDeviation="6.0071"/>
<feColorMatrix type="matrix" values="0 0 0 0 0 0 0 0 0 0 0 0 0 0 0 0 0 0 0.26 0"/>
<feBlend mode="normal" in2="effect1_dropShadow_861_1222" result="effect2_dropShadow_861_1222"/>
<feColorMatrix in="SourceAlpha" type="matrix" values="0 0 0 0 0 0 0 0 0 0 0 0 0 0 0 0 0 0 127 0" result="hardAlpha"/>
<feOffset dx="-23.361" dy="14.0166"/>
<feGaussianBlur stdDeviation="8.00947"/>
<feColorMatrix type="matrix" values="0 0 0 0 0 0 0 0 0 0 0 0 0 0 0 0 0 0 0.15 0"/>
<feBlend mode="normal" in2="effect2_dropShadow_861_1222" result="effect3_dropShadow_861_1222"/>
<feColorMatrix in="SourceAlpha" type="matrix" values="0 0 0 0 0 0 0 0 0 0 0 0 0 0 0 0 0 0 127 0" result="hardAlpha"/>
<feOffset dx="-41.3823" dy="24.6959"/>
<feGaussianBlur stdDeviation="9.67811"/>
<feColorMatrix type="matrix" values="0 0 0 0 0 0 0 0 0 0 0 0 0 0 0 0 0 0 0.04 0"/>
<feBlend mode="normal" in2="effect3_dropShadow_861_1222" result="effect4_dropShadow_861_1222"/>
<feColorMatrix in="SourceAlpha" type="matrix" values="0 0 0 0 0 0 0 0 0 0 0 0 0 0 0 0 0 0 127 0" result="hardAlpha"/>
<feOffset dx="-64.7432" dy="38.7124"/>
<feGaussianBlur stdDeviation="10.6793"/>
<feColorMatrix type="matrix" values="0 0 0 0 0 0 0 0 0 0 0 0 0 0 0 0 0 0 0.01 0"/>
<feBlend mode="normal" in2="effect4_dropShadow_861_1222" result="effect5_dropShadow_861_1222"/>
<feBlend mode="normal" in="SourceGraphic" in2="effect5_dropShadow_861_1222" result="shape"/>
</filter>
<clipPath id="bgblur_0_861_1222_clip_path" transform="translate(2.86102e-05 0.000268936)"><path d="M190.637 210.939C247.78 210.939 294.072 165.287 294.034 108.973C293.996 52.6586 247.642 7.00684 190.499 7.00684C133.356 7.00684 87.0636 52.6586 87.1019 108.973C87.1401 165.287 133.494 210.939 190.637 210.939Z"/>
</clipPath><linearGradient id="paint0_linear_861_1222" x1="190.148" y1="-172.004" x2="190.482" y2="210.842" gradientUnits="userSpaceOnUse">
<stop offset="0.0250848" stop-color="#2C6975"/>
<stop offset="1" stop-color="#52C5DB"/>
</linearGradient>
</defs>
</svg>
