<svg width="23" height="24" viewBox="0 0 23 24" fill="none" xmlns="http://www.w3.org/2000/svg">
<g id="Vector">
<path d="M10.845 4.49835L10.5006 5.10934C9.99277 4.81752 9.43306 4.62972 8.85345 4.55665C8.27383 4.48359 7.68566 4.5267 7.12253 4.68351C6.55939 4.84032 6.03232 5.10776 5.57141 5.47057C5.11051 5.83338 4.7248 6.28444 4.43632 6.798L3.83208 6.45021C4.50637 5.25135 5.62388 4.3723 6.93893 4.00629C8.25399 3.64028 9.65896 3.81727 10.845 4.49835Z" fill="#231F20"/>
<path d="M14.5633 2.70122C11.398 -0.729679 6.06163 -0.917673 2.66811 2.28246C1.06101 3.80198 0.10626 5.89742 0.00834625 8.11999C-0.0895676 10.3426 0.677138 12.5155 2.14426 14.1735C3.61137 15.8315 5.66224 16.8427 7.85762 16.9904C10.053 17.1382 12.2183 16.4108 13.8898 14.9641C13.9778 14.888 14.0644 14.8096 14.1496 14.7291C14.2352 14.6487 14.3184 14.5665 14.3997 14.4833C15.925 12.9201 16.7937 10.8213 16.8242 8.62552C16.8547 6.42977 16.0446 4.30709 14.5633 2.70122ZM15.248 8.74994C15.1864 10.5412 14.4398 12.2385 13.1653 13.4842C11.8908 14.73 10.188 15.427 8.41538 15.4284C8.33451 15.4284 8.25317 15.427 8.17136 15.4242C7.27293 15.395 6.38914 15.186 5.57113 14.8091C4.75312 14.4323 4.01713 13.8952 3.40575 13.2289C0.83214 10.4372 0.9832 6.05222 3.74226 3.44991C4.73187 2.51641 5.97302 1.90061 7.30876 1.68041C8.6445 1.46021 10.0148 1.64549 11.2464 2.21281C12.478 2.78014 13.5155 3.70403 14.2278 4.86764C14.9401 6.03125 15.2951 7.3823 15.248 8.74994Z" fill="#231F20"/>
<path d="M10.845 4.49835L10.5006 5.10934C9.99277 4.81752 9.43306 4.62972 8.85345 4.55665C8.27383 4.48359 7.68566 4.5267 7.12253 4.68351C6.55939 4.84032 6.03232 5.10776 5.57141 5.47057C5.11051 5.83338 4.7248 6.28444 4.43632 6.798L3.83208 6.45021C4.50637 5.25135 5.62388 4.3723 6.93893 4.00629C8.25399 3.64028 9.65896 3.81727 10.845 4.49835Z" fill="white"/>
<path d="M22.5816 21.3502L16.8585 15.3682L14.581 17.5175L20.305 23.5028C20.4442 23.6538 20.6115 23.7754 20.7974 23.8608C20.9833 23.9461 21.184 23.9934 21.388 24H21.4433C21.7468 23.9996 22.0435 23.9097 22.2971 23.7413C22.5507 23.5729 22.7501 23.3333 22.871 23.0519C22.9919 22.7705 23.0289 22.4595 22.9775 22.1572C22.9261 21.8548 22.7885 21.5747 22.5816 21.3502Z" fill="#231F20"/>
<path d="M14.1665 14.23L13.6567 14.7109L15.7077 16.9341L16.2175 16.4532L14.1665 14.23Z" fill="#231F20"/>
<path d="M10.845 4.49835L10.5006 5.10934C9.99277 4.81752 9.43306 4.62972 8.85345 4.55665C8.27383 4.48359 7.68566 4.5267 7.12253 4.68351C6.55939 4.84032 6.03232 5.10776 5.57141 5.47057C5.11051 5.83338 4.7248 6.28444 4.43632 6.798L3.83208 6.45021C4.50637 5.25135 5.62388 4.3723 6.93893 4.00629C8.25399 3.64028 9.65896 3.81727 10.845 4.49835Z" fill="#231F20"/>
</g>
</svg>
